<?xml version="1.0" encoding="utf-8" ?>
<svg baseProfile="full" height="200mm" version="1.1" viewBox="0,0,200,200" width="200mm" xmlns="http://www.w3.org/2000/svg" xmlns:ev="http://www.w3.org/2001/xml-events" xmlns:xlink="http://www.w3.org/1999/xlink"><defs /><rect fill="#1a1a1a" height="200" width="200" x="0" y="0" /><rect fill="#1a1a1a" height="200" width="180" x="10" y="0" /><text alignment-baseline="middle" fill="#e1ed5e" style="dominant-baseline: central; font-size:9.0px; font-family:Arial;" text-anchor="middle" x="100.0" y="100.0">2025</text><line stroke="#e1ed5e" stroke-width="0.3" x1="100.0" x2="100.0" y1="15.0" y2="10.0" /><path d="M 100.0 14.0 a86.0,86.0 0 0,1 42.46469731375804,11.215312516191453" fill="none" id="id1" stroke="none" /><text fill="#e1ed5e" style="font-size:6.75px; font-family:Arial;" text-anchor="middle"><textPath startOffset="22.20632615414155" xlink:href="#id1">January</textPath></text><line stroke="#e1ed5e" stroke-width="0.3" x1="143.23703022742887" x2="145.7803849466894" y1="26.81831364943548" y2="22.513508569990506" /><path d="M 143.74570117128098 25.957352633546492 a86.0,86.0 0 0,1 28.547481713284135,27.462654790039103" fill="none" id="id2" stroke="none" /><text fill="#e1ed5e" style="font-size:6.75px; font-family:Arial;" text-anchor="middle"><textPath startOffset="19.985693538727396" xlink:href="#id2">February</textPath></text><line stroke="#e1ed5e" stroke-width="0.3" x1="172.23445277983987" x2="176.4835382374775" y1="55.19839476539836" y2="52.563006222186495" /><path d="M 173.08426987136738 54.67131705675599 a86.0,86.0 0 0,1 12.851231095245387,41.99856678651699" fill="none" id="id3" stroke="none" /><text fill="#e1ed5e" style="font-size:6.75px; font-family:Arial;" text-anchor="middle"><textPath startOffset="22.20632615414155" xlink:href="#id3">March</textPath></text><line stroke="#e1ed5e" stroke-width="0.3" x1="184.98032266829074" x2="189.97916517819016" y1="98.17113171792111" y2="98.06355123074" /><path d="M 185.9800911702706 98.14961562048488 a86.0,86.0 0 0,1 -9.607161424134198,41.387399972396054" fill="none" id="id4" stroke="none" /><text fill="#e1ed5e" style="font-size:6.75px; font-family:Arial;" text-anchor="middle"><textPath startOffset="21.466115282336823" xlink:href="#id4">April</textPath></text><line stroke="#e1ed5e" stroke-width="0.3" x1="174.80103733775053" x2="179.2010983576182" y1="140.37084112569926" y2="142.7455964860345" /><path d="M 175.68104954172406 140.8457921977663 a86.0,86.0 0 0,1 -30.038265399797805,32.042727171017184" fill="none" id="id5" stroke="none" /><text fill="#e1ed5e" style="font-size:6.75px; font-family:Arial;" text-anchor="middle"><textPath startOffset="22.206326154141568" xlink:href="#id5">May</textPath></text><line stroke="#e1ed5e" stroke-width="0.3" x1="143.8653032363475" x2="146.44561519142675" y1="172.8068346515853" y2="177.08958963109032" /><path d="M 144.38136562736335 173.6633856474863 a86.0,86.0 0 0,1 -40.68145358897372,12.25698825130547" fill="none" id="id6" stroke="none" /><text fill="#e1ed5e" style="font-size:6.75px; font-family:Arial;" text-anchor="middle"><textPath startOffset="21.466115282336833" xlink:href="#id6">June</textPath></text><path d="M 104.13013068566511 120.58985236759428 l 12.390392056995317 61.76955710278282 a84.0,84.0 0 0,0 -1.4201295417131825,0.2721712066061275 l -11.32529490071043 -61.973685507737414" fill="red" stroke="none" /><path d="M 103.41894727170886 120.7198165907248 l 1.3945135123222618 8.451158181846678 a29.565438841684845,29.565438841684845 0 0,0 -0.5028435443297891,0.07853382012451454 l -1.2488341043839557 -8.473910309318299" fill="red" stroke="none" /><path d="M 103.06178313531738 120.77559828337769 l 2.811085283997174 19.07449875433002 a40.280526528153814,40.280526528153814 0 0,0 -0.6868240419843945,0.09518755386411341 l -2.482332650825949 -19.120060873686736" fill="red" stroke="none" /><path d="M 102.70371172650421 120.8252237178851 l 0.9723477470513416 7.489466856034741 a28.552322419550077,28.552322419550077 0 0,0 -0.48793550117008494,0.05908219401927893 l -0.8432848228298764 -7.505094578779371" fill="red" stroke="none" /><path d="M 101.98527174616119 120.90594882070398 l 1.8273155959552392 19.24258802462839 a40.329156116416286,40.329156116416286 0 0,0 -0.6916559398102754,0.05967898482324528 l -1.4958153384034218 -19.271191261730298" fill="red" stroke="none" /><path d="M 101.62511606390274 120.93702456842531 l 0.8125247707034426 10.468083766163751 a31.499570193033033,31.499570193033033 0 0,0 -0.5409484776697966,0.0373069741774386 l -0.6322135322547157 -10.480519084857475" fill="red" stroke="none" /><path d="M 101.26447882468166 120.96189622390904 l 2.488614292264124 41.25500049311651 a62.32999233949487,62.32999233949487 0 0,0 -1.0715176633454315,0.055385223884069044 l -1.7781085605052127 -41.291725523762786" fill="red" stroke="none" /><line stroke="#e1ed5e" stroke-width="0.3" x1="102.19456741930631" x2="102.32365962044197" y1="184.97166512339345" y2="189.96999836594603" /><path d="M 102.22038585953345 185.97133177190398 a86.0,86.0 0 0,1 -42.740103519485714,-10.115201625700543" fill="none" id="id7" stroke="none" /><text fill="#e1ed5e" style="font-size:6.75px; font-family:Arial;" text-anchor="middle"><textPath startOffset="22.20632615414155" xlink:href="#id7">July</textPath></text><path d="M 100.18074693466247 120.99922214144158 l 0.2776159272468601 32.25348489115931 a53.25467963299749,53.25467963299749 0 0,0 -0.9167257238186088,0.0 l 0.27761592724683787 -32.25348489115931" fill="red" stroke="none" /><path d="M 99.81925306533755 120.99922214144158 l -0.3026721344962954 35.16452104807108 a56.165823621255264,56.165823621255264 0 0,0 -0.9666948908142962,-0.016642529219903425 l 0.9079267152032593 -35.15410104157202" fill="red" stroke="none" /><path d="M 99.45781275523022 120.99299961872073 l -0.648086980818921 25.093341594574888 a46.10170928675434,46.10170928675434 0 0,0 -0.7931242532531644,-0.027316802931271828 l 1.0799315857467284 -25.078467993217522" fill="red" stroke="none" /><path d="M 99.09653310690486 120.98055641714683 l -1.078822110417941 25.05270345230633 a46.07592086873637,46.07592086873637 0 0,0 -0.7920931996404643,-0.04094217081048167 l 1.5099033784718943 -25.030421474733647" fill="red" stroke="none" /><path d="M 98.73552117531835 120.96189622390904 l -1.7485029838379165 28.985806151110026 a50.0384955001842,50.0384955001842 0 0,0 -0.85932118437916,-0.05926382004780936 l 2.2471869289960065 -28.95141398654593" fill="red" stroke="none" /><path d="M 98.37488393609728 120.93702456842531 l -2.2143153128338646 28.527915720497276 a49.61372341483097,49.61372341483097 0 0,0 -0.8508887812309951,-0.07341826439787892 l 2.705048411806401 -28.485573203820735" fill="red" stroke="none" /><path d="M 98.01472825383883 120.90594882070398 l -2.567617505872398 27.038353954670146 a48.1599934505605,48.1599934505605 0 0,0 -0.8246077996433177,-0.08547397005089602 l 3.032657902121309 -26.99015061616349" fill="red" stroke="none" /><path d="M 97.65516085044442 120.86867818915974 l -3.0487831533676175 27.133662668596738 a48.30440859146117,48.30440859146117 0 0,0 -0.8254822661522038,-0.0999544064560321 l 3.5153928425712104 -27.07716273341536" fill="red" stroke="none" /><path d="M 97.2962882734958 120.8252237178851 l -4.7347643489710025 36.469319510729555 a57.77538931154864,57.77538931154864 0 0,0 -0.9851292878816917,-0.13652994278188152 l 5.361822228039526 -36.38241500245507" fill="red" stroke="none" /><path d="M 96.58105272829116 120.7198165907248 l -3.342214040736906 20.254790854496452 a41.528685960223854,41.528685960223854 0 0,0 -0.7043087722927602,-0.12245310794341878 l 3.6903717845017163 -20.194259168032026" fill="red" stroke="none" /><path d="M 95.86986931433489 120.58985236759428 l -1.4672232081385845 7.314516548043954 a28.460220926628736,28.460220926628736 0 0,0 -0.4794985320689189,-0.10048357947194557 l 1.59291320163689 -7.288176987845468" fill="red" stroke="none" /><path d="M 94.46302465271185 120.25689768951611 l -13.496067788199591 49.37505537752319 a72.18632570596526,72.18632570596526 0 0,0 -1.1957796572454293,-0.3379392754577123 l 14.343978613549636 -49.13542730872695" fill="red" stroke="none" /><path d="M 93.76903079525671 120.05430185196036 l -3.4957585683806593 11.251058258884589 a32.78162297449812,32.78162297449812 0 0,0 -0.5374291934950542,-0.17206785630255667 l 3.688909106966654 -11.189217555922326" fill="red" stroke="none" /><path d="M 93.42475214034765 119.94407469862007 l -2.738767008339878 8.307241789564225 a29.747062985725734,29.747062985725734 0 0,0 -0.4849200007731741,-0.16451119255788518 l 2.881356742050278 -8.258867610108217" fill="red" stroke="none" /><path d="M 93.08242187328487 119.8279376855182 l -7.970301425583795 22.845371184310203 a45.19579900238002,45.19579900238002 0 0,0 -0.7323450639152589,-0.2625928843306766 l 8.36236605012878 -22.704790758939566" fill="red" stroke="none" /><path d="M 92.7421414339146 119.70592522655815 l -5.8101235988165785 15.775157390135515 a37.811101299946785,37.811101299946785 0 0,0 -0.6088123493029326,-0.23020073650445486 l 6.0808061688797945 -15.672808403524428" fill="red" stroke="none" /><path d="M 92.40401165467489 119.57807347666478 l -5.549641780092216 14.30377320242765 a36.342635096808905,36.342635096808905 0 0,0 -0.5812726271485513,-0.2313003744422546 l 5.795035483282625 -14.206125983579328" fill="red" stroke="none" /><path d="M 92.06813273071674 119.44442032107085 l -11.222437010198906 27.51102292118505 a50.71194161642506,50.71194161642506 0 0,0 -0.8054228511131502,-0.3366668170870253 l 11.694331320809518 -27.31377106107805" fill="red" stroke="none" /><path d="M 91.40352486487194 119.15986991738527 l -3.121146784575078 6.956428704267174 a28.624529990000408,28.624529990000408 0 0,0 -0.44781305751573536,-0.20556901086200527 l 3.240427837858233 -6.901672623071095" fill="red" stroke="none" /><path d="M 90.42595943632237 118.69057910512821 l -3.4431543426068774 6.721775219525429 a28.552322419550077,28.552322419550077 0 0,0 -0.43550326785612337,-0.22783472658675222 l 3.5583485129894963 -6.66151107399396" fill="red" stroke="none" /><path d="M 90.10565033884886 118.52300852407294 l -18.846575926578563 35.28228721370938 a61.00041518768238,61.00041518768238 0 0,0 -0.9219114403386718,-0.5026996235601902 l 19.451110178785875 -34.95264693838942" fill="red" stroke="none" /><line stroke="#e1ed5e" stroke-width="0.3" x1="58.666819895761336" x2="56.23545636021788" y1="174.27360380694188" y2="178.64263932499728" /><path d="M 58.180547188652646 175.14741091055294 a86.0,86.0 0 0,1 -31.652253787137756,-30.449443065178592" fill="none" id="id8" stroke="none" /><text fill="#e1ed5e" style="font-size:6.75px; font-family:Arial;" text-anchor="middle"><textPath startOffset="22.20632615414155" xlink:href="#id8">August</textPath></text><path d="M 89.7882731507175 118.34994917583269 l -9.25896993359891 16.637893885111197 a40.04069424058664,40.04069424058664 0 0,0 -0.5993734098980631,-0.3403398648252277 l 9.54399211041818 -16.476050854491337" fill="red" stroke="none" /><path d="M 89.4739219176387 118.17145234162733 l -19.185669613344906 33.12073863534337 a59.27627524019485,59.27627524019485 0 0,0 -0.878508635262545,-0.519038386679795 l 19.752946119635833 -32.78558167636983" fill="red" stroke="none" /><path d="M 89.1626897886671 117.98757091392108 l -4.028462567051634 6.68636909766981 a28.806154134041297,28.806154134041297 0 0,0 -0.42251879253526825,-0.2595455518323813 l 4.142960559519211 -6.61603507900905" fill="red" stroke="none" /><path d="M 88.8546689885994 117.79835938074946 l -11.759211570654788 18.778686191975186 a43.156671949101494,43.156671949101494 0 0,0 -0.6262201574277283,-0.39968333305165293 l 12.08071353012944 -18.57348843009973" fill="red" stroke="none" /><path d="M 88.24862548938628 117.40417183066458 l -12.674884788252271 18.771920900774578 a43.65033595115989,43.65033595115989 0 0,0 -0.6190929546167102,-0.42581777937632204 l 12.996134627491871 -18.550962332033155" fill="red" stroke="none" /><path d="M 87.36589467227662 116.77436683061367 l -14.37835318121604 19.09021370532615 a44.8992321951733,44.8992321951733 0 0,0 -0.6133476109283591,-0.4702887935760096 l 14.704829520637885 -18.839885569922775" fill="red" stroke="none" /><path d="M 87.07902340077011 116.55440617244103 l -8.445892649201006 10.820910968296378 a34.72680650499687,34.72680650499687 0 0,0 -0.4680553515758797,-0.3718514789466579 l 8.630905493494243 -10.67392557534459" fill="red" stroke="none" /><path d="M 86.79598089348748 116.32954008644616 l -16.275024690630847 20.12748284819406 a46.88420357061406,46.88420357061406 0 0,0 -0.6231800817119117,-0.5128347813649355 l 16.619074900887448 -19.84435294797194" fill="red" stroke="none" /><path d="M 86.24171649860922 115.8653595955263 l -16.929719625884644 19.52250000437535 a46.84073166595519,46.84073166595519 0 0,0 -0.6045970720717954,-0.5334866208071631 l 17.263259050863027 -19.228190241795897" fill="red" stroke="none" /><path d="M 85.97065885151581 115.62618273729859 l -10.989939072142043 12.240831154898816 a37.450431853666814,37.450431853666814 0 0,0 -0.47597795878116816,-0.4347945800181179 l 11.199016580390065 -12.04984380829412" fill="red" stroke="none" /><path d="M 85.70375840098266 115.38237550388516 l -17.664916888522463 19.00698046700978 a46.94830620968732,46.94830620968732 0 0,0 -0.5872208417777117,-0.5552539583777268 l 17.98947356469099 -18.700091871886123" fill="red" stroke="none" /><path d="M 84.9287848128048 114.62390073753433 l -21.638735139797124 20.996496356779854 a51.15108153467402,51.15108153467402 0 0,0 -0.60770760632295,-0.6371789956466196 l 21.996949297499032 -20.620910244550736" fill="red" stroke="none" /><path d="M 84.43433777217949 114.09645910891817 l -22.144115393650225 20.053988875066533 a50.87514546188167,50.87514546188167 0 0,0 -0.5822567135531792,-0.6541715901380432 l 22.486030956851742 -19.669843115187625" fill="red" stroke="none" /><path d="M 83.95833913139862 113.55231037782056 l -22.533389611224916 19.03665040528328 a50.49826615284754,50.49826615284754 0 0,0 -0.555250078720635,-0.6688344888422724 l 22.85773568983909 -18.645954659327245" fill="red" stroke="none" /><path d="M 83.72743513129214 113.27417163493432 l -13.667824020958113 11.149382005486075 a38.63854111235213,38.63854111235213 0 0,0 -0.41597533570641265,-0.5189931904255546 l 13.857717268719387 -10.91246098148226" fill="red" stroke="none" /><path d="M 83.28015986056508 112.70617746262583 l -26.61014959544947 20.22227965381906 a54.42215815726842,54.42215815726842 0 0,0 -0.5603894544594032,-0.7507332517841959 l 26.95430031660396 -19.761233522525558" fill="red" stroke="none" /><path d="M 82.85270091963577 112.12312394758628 l -30.160262792103214 21.323276768359452 a57.93675112714684,57.93675112714684 0 0,0 -0.5687156818725366,-0.8192773565572715 l 30.522839381137885 -20.80095814961517" fill="red" stroke="none" /><path d="M 82.44556493220864 111.52570212397912 l -31.041745881102536 20.38105555958844 a58.134585133941876,58.134585133941876 0 0,0 -0.5420223351818533,-0.8412307009396482 l 31.387973079661432 -19.84370325872734" fill="red" stroke="none" /><path d="M 82.05923443525364 110.91462005526583 l -31.986446114713573 19.459587998092665 a58.44073049641242,58.44073049641242 0 0,0 -0.5154448060048163,-0.863915143193922 l 32.31667179641662 -18.90611076101263" fill="red" stroke="none" /><line stroke="#e1ed5e" stroke-width="0.3" x1="26.63291911575756" x2="22.317208475507996" y1="142.92168965132927" y2="145.44649492493687" /><path d="M 25.769776987707644 143.4266507060508 a86.0,86.0 0 0,1 -11.730757126820373,-40.83630448921669" fill="none" id="id9" stroke="none" /><text fill="#e1ed5e" style="font-size:6.75px; font-family:Arial;" text-anchor="middle"><textPath startOffset="21.46611528233685" xlink:href="#id9">September</textPath></text><path d="M 81.87401531095188 110.60418214915194 l -31.851139246554343 18.633761863019714 a57.901384153865045,57.901384153865045 0 0,0 -0.49587849333747647,-0.8646059508564945 l 32.167169736044194 -18.082736066304914" fill="red" stroke="none" /><path d="M 80.87730276802145 108.67885076344099 l -33.13089737729395 15.03648311262116 a57.383405357675414,57.383405357675414 0 0,0 -0.4004785544593415,-0.9029734170551329 l 33.38481701648457 -14.463961359073332" fill="red" stroke="none" /><path d="M 80.73074385275274 108.34839909993369 l -40.63516944380321 17.60517424326014 a65.28497663838323,65.28497663838323 0 0,0 -0.4378726143999745,-1.0350015149622607 l 40.932193039395486 -16.90309820263172" fill="red" stroke="none" /><path d="M 80.45479744820244 107.68017299344265 l -46.02158171243957 18.08391128445408 a70.44708111363863,70.44708111363863 0 0,0 -0.4337719320920735,-1.132441636636064 l 46.326047924125156 -17.289046080984857" fill="red" stroke="none" /><path d="M 80.32549172779594 107.34259656027581 l -45.04967330336792 16.812698526559014 a69.08471583034613,69.08471583034613 0 0,0 -0.40620411144743146,-1.1176992569793558 l 45.33240167582057 -16.034751472573543" fill="red" stroke="none" /><path d="M 80.20201598880116 107.00284435728193 l -55.87248636453829 19.762937763961048 a80.26473185308203,80.26473185308203 0 0,0 -0.44951754370502667,-1.3065083965048305 l 56.20439473918655 -18.79825666436692" fill="red" stroke="none" /><path d="M 79.97269907076064 106.31721596034903 l -37.99972093486486 11.986260376607557 a60.84531627360283,60.84531627360283 0 0,0 -0.3064669276259162,-1.0015516515392593 l 38.2004146349969 -11.33038175251625" fill="red" stroke="none" /><path d="M 79.76711848015287 105.62410040840567 l -39.23563053539996 10.906262931542354 a61.723227704129066,61.723227704129066 0 0,0 -0.27573212977709527,-1.026101829770582 l 39.41755074151884 -10.229270168596234" fill="red" stroke="none" /><line stroke="#e1ed5e" stroke-width="0.3" x1="15.007084014347285" x2="10.007500721073583" y1="101.09737516637583" y2="101.16192664675087" /><path d="M 14.007167355692545 101.11028546245083 a86.0,86.0 0 0,1 10.666146001902534,-42.60595125391555" fill="none" id="id10" stroke="none" /><text fill="#e1ed5e" style="font-size:6.75px; font-family:Arial;" text-anchor="middle"><textPath startOffset="22.20632615414155" xlink:href="#id10">October</textPath></text><line stroke="#e1ed5e" stroke-width="0.3" x1="26.266209847984243" x2="21.928928074336255" y1="57.711370442889674" y2="55.22380399835377" /><path d="M 25.398753493254645 57.213857153982495 a86.0,86.0 0 0,1 29.58750427330803,-30.492523968695096" fill="none" id="id11" stroke="none" /><text fill="#e1ed5e" style="font-size:6.75px; font-family:Arial;" text-anchor="middle"><textPath startOffset="21.46611528233685" xlink:href="#id11">November</textPath></text><line stroke="#e1ed5e" stroke-width="0.3" x1="56.762969772571076" x2="54.21961505331055" y1="26.818313649435495" y2="22.513508569990535" /><path d="M 56.25429882871897 25.957352633546506 a86.0,86.0 0 0,1 42.265352541879196,-11.944610805530505" fill="none" id="id12" stroke="none" /><text fill="#e1ed5e" style="font-size:6.75px; font-family:Arial;" text-anchor="middle"><textPath startOffset="22.20632615414155" xlink:href="#id12">December</textPath></text></svg>