<?xml version="1.0" encoding="utf-8" ?>
<svg baseProfile="full" height="200mm" version="1.1" viewBox="0,0,200,200" width="200mm" xmlns="http://www.w3.org/2000/svg" xmlns:ev="http://www.w3.org/2001/xml-events" xmlns:xlink="http://www.w3.org/1999/xlink"><defs /><rect fill="#1a1a1a" height="200" width="200" x="0" y="0" /><rect fill="#1a1a1a" height="200" width="180" x="10" y="0" /><text alignment-baseline="middle" fill="#e1ed5e" style="dominant-baseline: central; font-size:9.0px; font-family:Arial;" text-anchor="middle" x="100.0" y="100.0">2026</text><line stroke="#e1ed5e" stroke-width="0.3" x1="100.0" x2="100.0" y1="15.0" y2="10.0" /><path d="M 100.0 14.0 a86.0,86.0 0 0,1 42.46469731375804,11.215312516191453" fill="none" id="id13" stroke="none" /><text fill="#e1ed5e" style="font-size:6.75px; font-family:Arial;" text-anchor="middle"><textPath startOffset="22.20632615414155" xlink:href="#id13">January</textPath></text><path d="M 110.05341064243156 81.56283822128135 l 1.1528186179807234 -2.1141783736080146 a23.408057507908566,23.408057507908566 0 0,0 0.3520972137316575,0.19594171823410253 l -1.189039920784416 2.094021257813732" fill="#ff0b01" stroke="none" /><path d="M 110.36928655335952 81.73862282372117 l 1.2191802803718583 -2.147101522480218 a23.46909811548356,23.46909811548356 0 0,0 0.34958145602928875,0.20250014325384022 l -1.2559584688664753 2.1257972218363284" fill="#ff0c01" stroke="none" /><line stroke="#e1ed5e" stroke-width="0.3" x1="143.23703022742887" x2="145.7803849466894" y1="26.81831364943548" y2="22.513508569990506" /><path d="M 143.74570117128098 25.957352633546492 a86.0,86.0 0 0,1 28.547481713284135,27.462654790039103" fill="none" id="id14" stroke="none" /><text fill="#e1ed5e" style="font-size:6.75px; font-family:Arial;" text-anchor="middle"><textPath startOffset="19.985693538727396" xlink:href="#id14">February</textPath></text><path d="M 110.68208982089419 81.91981866633111 l 1.8307420466858424 -3.098658477342904 a24.599069435383612,24.599069435383612 0 0,0 0.36270500156862134,0.2185257051111322 l -1.8838091144721012 3.066686162773157" fill="#ff1c02" stroke="none" /><path d="M 110.99172775467656 82.1063720568725 l 0.8795129478057377 -1.4317746773252649 a22.680333821592544,22.680333821592544 0 0,0 0.33089618574950236,0.20720716115986398 l -0.9040282859275034 1.4164231748424567" fill="#ff0000" stroke="none" /><path d="M 111.2981086023043 82.29822771554956 l 3.0073483156203853 -4.71188558519256 a26.58981302544282,26.58981302544282 0 0,0 0.3836947678542774,0.24956575017675117 l -3.088010109258943 4.65942091085628" fill="#ff3905" stroke="none" /><path d="M 112.48926042617603 83.11751280151076 l 37.46778127852809 -50.647461595467746 a84.0,84.0 0 0,0 1.1550153849664682,0.8699336419766106 l -38.33404281725294 49.995011363985284" fill="#4dd2ff" stroke="none" /><path d="M 113.06298171725822 83.55741782278167 l 1.6957686078543563 -2.134490830018912 a23.726111200009846,23.726111200009846 0 0,0 0.31758710588589195,0.25680001959026105 l -1.7322591123047395 2.104984713164521" fill="#ff0f01" stroke="none" /><path d="M 113.34407831869373 83.78471172551755 l 7.0521558082656535 -8.569549477793197 a32.098201646951665,32.098201646951665 0 0,0 0.4236083173151952,0.354759783428442 l -7.198621662539966 8.446888536970937" fill="#ff850c" stroke="none" /><path d="M 116.82858285166822 87.43820079747576 l 9.77894107053515 -7.2995507241539865 a33.202914784406886,33.202914784406886 0 0,0 0.33793829823580085,0.46094745901093415 l -9.903141981284579 7.130140821471559" fill="#ff940d" stroke="none" /><line stroke="#e1ed5e" stroke-width="0.3" x1="172.23445277983987" x2="176.4835382374775" y1="55.19839476539836" y2="52.563006222186495" /><path d="M 173.08426987136738 54.67131705675599 a86.0,86.0 0 0,1 12.851231095245387,41.99856678651699" fill="none" id="id15" stroke="none" /><text fill="#e1ed5e" style="font-size:6.75px; font-family:Arial;" text-anchor="middle"><textPath startOffset="22.20632615414155" xlink:href="#id15">March</textPath></text><path d="M 117.84615892207809 88.93136811851018 l 12.26461139558521 -7.606817203634437 a35.43206016666461,35.43206016666461 0 0,0 0.31700592092801255,0.5210743829110334 l -12.393733114799446 7.394575047516322" fill="#ffb210" stroke="none" /><path d="M 118.56541770881063 90.18545643968196 l 9.818317239403749 -5.1904192917468714 a32.10584557058628,32.10584557058628 0 0,0 0.2540804130595001,0.4908024858597657 l -9.906207085623365 5.0206440836267605" fill="#ff850c" stroke="none" /><path d="M 119.04729006885535 91.15688171328212 l 11.596738919916243 -5.38403802526682 a33.78562548466907,33.78562548466907 0 0,0 0.24035686511207885,0.5295944917646559 l -11.687698101991668 5.183621524660102" fill="#ff9c0e" stroke="none" /><path d="M 119.7369772167798 92.82701384747503 l 10.441123916719896 -3.794605245212338 a32.10927979714676,32.10927979714676 0 0,0 0.18431784556961264,0.5210913699333128 l -10.504894843099317 3.614316248852411" fill="#ff850c" stroke="none" /><path d="M 119.97218684219823 93.5106431181261 l 5.895705183953888 -1.9156307374490689 a27.19911128617324,27.19911128617324 0 0,0 0.14084543803569677,0.4465185280598823 l -5.927806105757791 1.8138620429627674" fill="#ff4106" stroke="none" /><path d="M 120.28053869075195 94.5502522615342 l 10.35839621464147 -2.7834885061813894 a31.725865018894403,31.725865018894403 0 0,0 0.13718213896682194,0.5286187415555161 l -10.404774685478595 2.604773339077023" fill="#ff800b" stroke="none" /><path d="M 120.37134235888165 94.90015583598534 l 11.734118445645606 -2.93756662769903 a33.09623219802809,33.09623219802809 0 0,0 0.133594044064026,0.5538335605150736 l -11.782945289970451 2.7351478355245504" fill="#ff930d" stroke="none" /><path d="M 120.78858239683441 97.02765380044208 l 11.070365096955872 -1.5828379730532254 a32.18294949594417,32.18294949594417 0 0,0 0.07368976066117094,0.5490743096502883 l -11.095970856674878 1.3920453213382726" fill="#ff860c" stroke="none" /><path d="M 120.94382443527127 98.46500227214037 l 17.81186482018539 -1.3054526938204534 a38.8596398370281,38.8596398370281 0 0,0 0.0431516111800365,0.6675363255999783 l -17.83169702236984 0.9986573039674398" fill="#ffde14" stroke="none" /><path d="M 120.96714384426684 98.82574320788733 l 2.1461304303262247 -0.12019320577415409 a23.14949348235497,23.14949348235497 0 0,0 0.018857347843108767,0.39804880875150644 l -2.14788138640283 0.08323329039964786" fill="#ff0701" stroke="none" /><path d="M 120.98425023603335 99.18683210126433 l 7.450999754542493 -0.2887362543683912 a28.45659211481887,28.45659211481887 0 0,0 0.014754479509391872,0.4896293444587827 l -7.454865928507529 0.1604367624846094" fill="#ff5307" stroke="none" /><line stroke="#e1ed5e" stroke-width="0.3" x1="184.98032266829074" x2="189.97916517819016" y1="98.17113171792111" y2="98.06355123074" /><path d="M 185.9800911702706 98.14961562048488 a86.0,86.0 0 0,1 -9.607161424134198,41.387399972396054" fill="none" id="id16" stroke="none" /><text fill="#e1ed5e" style="font-size:6.75px; font-family:Arial;" text-anchor="middle"><textPath startOffset="21.466115282336823" xlink:href="#id16">April</textPath></text><path d="M 120.9904718944345 100.63252640178507 l 20.23414062681478 0.609735132600127 a41.24332541450745,41.24332541450745 0 0,0 -0.02749136142508906,0.7094298832631232 l -20.220647132538488 -0.9579422628772564" fill="#fffb17" stroke="none" /><path d="M 120.9764740272857 100.99374915477107 l 3.953788729098351 0.187308610711886 a24.958223064708704,24.958223064708704 0 0,0 -0.024023655404799754,0.4289585054315697 l -3.949978722806022 -0.255338832478879" fill="#ff2103" stroke="none" /><path d="M 120.95626037817324 101.35467743843564 l 17.837144331578678 1.1530481372180852 a38.87437377678758,38.87437377678758 0 0,0 -0.04891403499769316,0.6673931451617823 l -17.814653737916647 -1.4599144188766378" fill="#ffde14" stroke="none" /><path d="M 120.8583938346157 102.4346265915055 l 11.388569258042075 1.3292928388770278 a32.46588545192698,32.46588545192698 0 0,0 -0.06956742125244877,0.5545207953783506 l -11.364000327542778 -1.5251313885427733" fill="#ff8a0c" stroke="none" /><path d="M 120.49622156327973 104.57218783832717 l 11.048642225567349 2.4646722059382133 a32.32020777686144,32.32020777686144 0 0,0 -0.12580169012798093,0.5419503885352177 l -11.004579969508816 -2.654491251821996" fill="#ff880c" stroke="none" /><path d="M 120.32669344350535 105.2749913415812 l 22.807414528659475 5.918764628241711 a44.56289312046873,44.56289312046873 0 0,0 -0.19907289178128348,0.7408242872516485 l -22.702153560536416 -6.3104798486689075" fill="#daff1b" stroke="none" /><path d="M 119.9155931802556 106.66101706037122 l 10.686796805425129 3.57433169061871 a32.26869437845423,32.26869437845423 0 0,0 -0.18071877773318293,0.5252533606773571 l -10.623687196748714 -3.7577577543853677" fill="#ff880c" stroke="none" /><path d="M 119.67450827220406 107.3425965602758 l 11.583073670724941 4.3228443484020165 a33.36343718073387,33.36343718073387 0 0,0 -0.20543253713769402,0.536319529602791 l -11.506946853993739 -4.521587444837951" fill="#ff960d" stroke="none" /><path d="M 119.54520255179757 107.68017299344265 l 2.542412282268936 0.9990260319242867 a23.7316502751074,23.7316502751074 0 0,0 -0.15267066245356395,0.3789160637798466 l -2.5248390055579795 -1.042641463546947" fill="#ff0f01" stroke="none" /><path d="M 119.41010516605496 108.01547362559984 l 18.630543118755313 7.693550638774569 a41.15658349847983,41.15658349847983 0 0,0 -0.2760411620589378,0.6524797658662641 l -18.495350975504067 -8.013104930306996" fill="#fffa17" stroke="none" /><path d="M 119.12269723197855 108.67885076344098 l 10.213912546292567 4.635592020558231 a32.216627072537264,32.216627072537264 0 0,0 -0.2335327809640594,0.5030088341450725 l -10.132605148488677 -4.810720921982133" fill="#ff870c" stroke="none" /><path d="M 118.97047184881838 109.00673069616215 l 10.0487422041486 4.770904782400694 a32.123792173902345,32.123792173902345 0 0,0 -0.2414588561826768,0.49747676148710934 l -9.965130091351208 -4.943170499853079" fill="#ff860c" stroke="none" /><line stroke="#e1ed5e" stroke-width="0.3" x1="174.80103733775053" x2="179.2010983576182" y1="140.37084112569926" y2="142.7455964860345" /><path d="M 175.68104954172406 140.8457921977663 a86.0,86.0 0 0,1 -30.038265399797805,32.042727171017184" fill="none" id="id17" stroke="none" /><text fill="#e1ed5e" style="font-size:6.75px; font-family:Arial;" text-anchor="middle"><textPath startOffset="22.206326154141568" xlink:href="#id17">May</textPath></text><line stroke="#e1ed5e" stroke-width="0.3" x1="143.8653032363475" x2="146.44561519142675" y1="172.8068346515853" y2="177.08958963109032" /><path d="M 144.38136562736335 173.6633856474863 a86.0,86.0 0 0,1 -40.68145358897372,12.25698825130547" fill="none" id="id18" stroke="none" /><text fill="#e1ed5e" style="font-size:6.75px; font-family:Arial;" text-anchor="middle"><textPath startOffset="21.466115282336833" xlink:href="#id18">June</textPath></text><line stroke="#e1ed5e" stroke-width="0.3" x1="102.19456741930631" x2="102.32365962044197" y1="184.97166512339345" y2="189.96999836594603" /><path d="M 102.22038585953345 185.97133177190398 a86.0,86.0 0 0,1 -42.740103519485714,-10.115201625700543" fill="none" id="id19" stroke="none" /><text fill="#e1ed5e" style="font-size:6.75px; font-family:Arial;" text-anchor="middle"><textPath startOffset="22.20632615414155" xlink:href="#id19">July</textPath></text><line stroke="#e1ed5e" stroke-width="0.3" x1="58.666819895761336" x2="56.23545636021788" y1="174.27360380694188" y2="178.64263932499728" /><path d="M 58.180547188652646 175.14741091055294 a86.0,86.0 0 0,1 -31.652253787137756,-30.449443065178592" fill="none" id="id20" stroke="none" /><text fill="#e1ed5e" style="font-size:6.75px; font-family:Arial;" text-anchor="middle"><textPath startOffset="22.20632615414155" xlink:href="#id20">August</textPath></text><line stroke="#e1ed5e" stroke-width="0.3" x1="26.63291911575756" x2="22.317208475507996" y1="142.92168965132927" y2="145.44649492493687" /><path d="M 25.769776987707644 143.4266507060508 a86.0,86.0 0 0,1 -11.730757126820373,-40.83630448921669" fill="none" id="id21" stroke="none" /><text fill="#e1ed5e" style="font-size:6.75px; font-family:Arial;" text-anchor="middle"><textPath startOffset="21.46611528233685" xlink:href="#id21">September</textPath></text><line stroke="#e1ed5e" stroke-width="0.3" x1="15.007084014347285" x2="10.007500721073583" y1="101.09737516637583" y2="101.16192664675087" /><path d="M 14.007167355692545 101.11028546245083 a86.0,86.0 0 0,1 10.666146001902534,-42.60595125391555" fill="none" id="id22" stroke="none" /><text fill="#e1ed5e" style="font-size:6.75px; font-family:Arial;" text-anchor="middle"><textPath startOffset="22.20632615414155" xlink:href="#id22">October</textPath></text><line stroke="#e1ed5e" stroke-width="0.3" x1="26.266209847984243" x2="21.928928074336255" y1="57.711370442889674" y2="55.22380399835377" /><path d="M 25.398753493254645 57.213857153982495 a86.0,86.0 0 0,1 29.58750427330803,-30.492523968695096" fill="none" id="id23" stroke="none" /><text fill="#e1ed5e" style="font-size:6.75px; font-family:Arial;" text-anchor="middle"><textPath startOffset="21.46611528233685" xlink:href="#id23">November</textPath></text><line stroke="#e1ed5e" stroke-width="0.3" x1="56.762969772571076" x2="54.21961505331055" y1="26.818313649435495" y2="22.513508569990535" /><path d="M 56.25429882871897 25.957352633546506 a86.0,86.0 0 0,1 42.265352541879196,-11.944610805530505" fill="none" id="id24" stroke="none" /><text fill="#e1ed5e" style="font-size:6.75px; font-family:Arial;" text-anchor="middle"><textPath startOffset="22.20632615414155" xlink:href="#id24">December</textPath></text></svg>