<?xml version="1.0" encoding="utf-8" ?>
<svg baseProfile="full" height="200mm" version="1.1" viewBox="0,0,200,200" width="200mm" xmlns="http://www.w3.org/2000/svg" xmlns:ev="http://www.w3.org/2001/xml-events" xmlns:xlink="http://www.w3.org/1999/xlink"><defs /><rect fill="#1a1a1a" height="200" width="200" x="0" y="0" /><rect fill="#1a1a1a" height="200" width="180" x="10" y="0" /><text alignment-baseline="middle" fill="#e1ed5e" style="dominant-baseline: central; font-size:9.0px; font-family:Arial;" text-anchor="middle" x="100.0" y="100.0">2025</text><line stroke="#e1ed5e" stroke-width="0.3" x1="100.0" x2="100.0" y1="15.0" y2="10.0" /><path d="M 100.0 14.0 a86.0,86.0 0 0,1 42.46469731375804,11.215312516191453" fill="none" id="id1" stroke="none" /><text fill="#e1ed5e" style="font-size:6.75px; font-family:Arial;" text-anchor="middle"><textPath startOffset="22.20632615414155" xlink:href="#id1">January</textPath></text><line stroke="#e1ed5e" stroke-width="0.3" x1="143.23703022742887" x2="145.7803849466894" y1="26.81831364943548" y2="22.513508569990506" /><path d="M 143.74570117128098 25.957352633546492 a86.0,86.0 0 0,1 28.547481713284135,27.462654790039103" fill="none" id="id2" stroke="none" /><text fill="#e1ed5e" style="font-size:6.75px; font-family:Arial;" text-anchor="middle"><textPath startOffset="19.985693538727396" xlink:href="#id2">February</textPath></text><line stroke="#e1ed5e" stroke-width="0.3" x1="172.23445277983987" x2="176.4835382374775" y1="55.19839476539836" y2="52.563006222186495" /><path d="M 173.08426987136738 54.67131705675599 a86.0,86.0 0 0,1 12.851231095245387,41.99856678651699" fill="none" id="id3" stroke="none" /><text fill="#e1ed5e" style="font-size:6.75px; font-family:Arial;" text-anchor="middle"><textPath startOffset="22.20632615414155" xlink:href="#id3">March</textPath></text><line stroke="#e1ed5e" stroke-width="0.3" x1="184.98032266829074" x2="189.97916517819016" y1="98.17113171792111" y2="98.06355123074" /><path d="M 185.9800911702706 98.14961562048488 a86.0,86.0 0 0,1 -9.607161424134198,41.387399972396054" fill="none" id="id4" stroke="none" /><text fill="#e1ed5e" style="font-size:6.75px; font-family:Arial;" text-anchor="middle"><textPath startOffset="21.466115282336823" xlink:href="#id4">April</textPath></text><line stroke="#e1ed5e" stroke-width="0.3" x1="174.80103733775053" x2="179.2010983576182" y1="140.37084112569926" y2="142.7455964860345" /><path d="M 175.68104954172406 140.8457921977663 a86.0,86.0 0 0,1 -30.038265399797805,32.042727171017184" fill="none" id="id5" stroke="none" /><text fill="#e1ed5e" style="font-size:6.75px; font-family:Arial;" text-anchor="middle"><textPath startOffset="22.206326154141568" xlink:href="#id5">May</textPath></text><line stroke="#e1ed5e" stroke-width="0.3" x1="143.8653032363475" x2="146.44561519142675" y1="172.8068346515853" y2="177.08958963109032" /><path d="M 144.38136562736335 173.6633856474863 a86.0,86.0 0 0,1 -40.68145358897372,12.25698825130547" fill="none" id="id6" stroke="none" /><text fill="#e1ed5e" style="font-size:6.75px; font-family:Arial;" text-anchor="middle"><textPath startOffset="21.466115282336833" xlink:href="#id6">June</textPath></text><path d="M 105.88484417918355 120.15858648285463 l 6.278361382602125 21.506583190340095 a43.404261696685495,43.404261696685495 0 0,0 -0.7189995150337136,0.2031964448405643 l -5.907230699463806 -21.611468428519178" fill="red" stroke="none" /><path d="M 104.83641907484287 120.43548508189849 l 5.0874407192474775 21.496135325411718 a43.089949909410635,43.089949909410635 0 0,0 -0.7232542431780056,0.16461031103366108 l -4.71666632667661 -21.580522370023065" fill="red" stroke="none" /><path d="M 104.48393922423573 120.51570834832081 l 4.740410942492897 21.689162917668508 a43.20115501438772,43.20115501438772 0 0,0 -0.7278541676287341,0.15252891762011644 l -4.366365313434784 -21.767547816015167" fill="red" stroke="none" /><path d="M 103.06178313531738 120.77559828337769 l 3.202036003680225 21.727278112555386 a42.961959128210594,42.961959128210594 0 0,0 -0.7325452014481989,0.10152408995364286 l -2.827562211045196 -21.77917676800163" fill="red" stroke="none" /><path d="M 101.98527174616119 120.90594882070398 l 2.081448884402094 21.918744340347082 a43.01735185974635,43.01735185974635 0 0,0 -0.7377592241904336,0.0636569701920689 l -1.7038453424701188 -21.951325562817814" fill="red" stroke="none" /><line stroke="#e1ed5e" stroke-width="0.3" x1="102.19456741930631" x2="102.32365962044197" y1="184.97166512339345" y2="189.96999836594603" /><path d="M 102.22038585953345 185.97133177190398 a86.0,86.0 0 0,1 -42.740103519485714,-10.115201625700543" fill="none" id="id7" stroke="none" /><text fill="#e1ed5e" style="font-size:6.75px; font-family:Arial;" text-anchor="middle"><textPath startOffset="22.20632615414155" xlink:href="#id7">July</textPath></text><path d="M 93.76903079525671 120.05430185196036 l -1.84964258905324 5.953053141536646 a27.233780507300438,27.233780507300438 0 0,0 -0.44647663434009344,-0.14294771904829046 l 1.951840568484274 -5.920332575828649" fill="red" stroke="none" /><line stroke="#e1ed5e" stroke-width="0.3" x1="58.666819895761336" x2="56.23545636021788" y1="174.27360380694188" y2="178.64263932499728" /><path d="M 58.180547188652646 175.14741091055294 a86.0,86.0 0 0,1 -31.652253787137756,-30.449443065178592" fill="none" id="id8" stroke="none" /><text fill="#e1ed5e" style="font-size:6.75px; font-family:Arial;" text-anchor="middle"><textPath startOffset="22.20632615414155" xlink:href="#id8">August</textPath></text><path d="M 89.7882731507175 118.34994917583269 l -10.546657994744145 18.951803258627375 a42.688772247681975,42.688772247681975 0 0,0 -0.6390127711751703,-0.36284812868215033 l 10.871319532840523 -18.76745196415059" fill="red" stroke="none" /><path d="M 88.8546689885994 117.79835938074946 l -13.394619878123763 21.390325519763813 a46.238103485026116,46.238103485026116 0 0,0 -0.6709329319392869,-0.4282211412566359 l 13.760834612109974 -21.156589949683376" fill="red" stroke="none" /><path d="M 88.24862548938628 117.40417183066458 l -14.437640033735587 21.38261934801475 a46.80042363849515,46.80042363849515 0 0,0 -0.6637706655932344,-0.4565475163790942 l 14.803567583951711 -21.130931042270554" fill="red" stroke="none" /><path d="M 86.79598089348748 116.32954008644616 l -18.53846815564525 22.926705607355874 a50.48404028562294,50.48404028562294 0 0,0 -0.6710287464509849,-0.5522109749246817 l 18.930367030640923 -22.604199513574013" fill="red" stroke="none" /><path d="M 86.24171649860922 115.8653595955263 l -19.284214563996432 22.237584982469734 a50.434522540765215,50.434522540765215 0 0,0 -0.6509839529609278,-0.5744176498816622 l 19.664140869863946 -21.902344190815782" fill="red" stroke="none" /><path d="M 85.70375840098266 115.38237550388516 l -20.121659133243377 21.65036974263257 a50.5570579771928,50.5570579771928 0 0,0 -0.6323584499635446,-0.5979343842648822 l 20.491353417597736 -21.300800721621755" fill="red" stroke="none" /><path d="M 84.9287848128048 114.62390073753433 l -24.64813479198608 23.916576870962462 a55.34433283597996,55.34433283597996 0 0,0 -0.6575261171847353,-0.6894135051134198 l 25.056167460549776 -23.488756249266544" fill="red" stroke="none" /><path d="M 84.43433777217949 114.09645910891817 l -25.22380063094123 22.842990485176006 a55.03002104870511,55.03002104870511 0 0,0 -0.6298085029867592,-0.7075965296597294 l 25.61326798357633 -22.405419785775415" fill="red" stroke="none" /><path d="M 83.95833913139862 113.55231037782056 l -25.66721302652896 21.68416601737369 a54.600727379302995,54.600727379302995 0 0,0 -0.6003583981239795,-0.7231703654263608 l 26.036667424546476 -21.23913439483357" fill="red" stroke="none" /><path d="M 83.28015986056508 112.70617746262583 l -30.310947004349806 23.03468624614087 a59.07033331557072,59.07033331557072 0 0,0 -0.6082520977170538,-0.814853084029194 l 30.702960368761946 -22.509520282602367" fill="red" stroke="none" /><path d="M 82.85270091963577 112.12312394758628 l -34.35479097363047 24.28880415596588 a63.073717094745824,63.073717094745824 0 0,0 -0.6191408963725292,-0.8919186389347223 l 34.767792777165134 -23.693844254844144" fill="red" stroke="none" /><path d="M 82.44556493220864 111.52570212397912 l -35.35886602026073 23.215543856432785 a63.299064798039005,63.299064798039005 0 0,0 -0.5901737638208232,-0.9159627874903175 l 35.753244647458594 -22.60345946902102" fill="red" stroke="none" /><line stroke="#e1ed5e" stroke-width="0.3" x1="26.63291911575756" x2="22.317208475507996" y1="142.92168965132927" y2="145.44649492493687" /><path d="M 25.769776987707644 143.4266507060508 a86.0,86.0 0 0,1 -11.730757126820373,-40.83630448921669" fill="none" id="id9" stroke="none" /><text fill="#e1ed5e" style="font-size:6.75px; font-family:Arial;" text-anchor="middle"><textPath startOffset="21.46611528233685" xlink:href="#id9">September</textPath></text><path d="M 81.87401531095188 110.60418214915194 l -36.28082548981881 21.225245889570317 a63.03343147181072,63.03343147181072 0 0,0 -0.5398303250414801,-0.9412396741433453 l 36.64080781101267 -20.597586369568663" fill="red" stroke="none" /><path d="M 80.73074385275274 108.34839909993369 l -46.286491667620005 20.053607800125143 a71.44389454332304,71.44389454332304 0 0,0 -0.4791810688679701,-1.1326424990044166 l 46.62482371768028 -19.25389077545457" fill="red" stroke="none" /><path d="M 80.45479744820244 107.68017299344265 l -39.76088491510104 15.623807106171716 a63.72038527123522,63.72038527123522 0 0,0 -0.39235287247982015,-1.0243095418990749 l 40.02393206717437 -14.937073997439484" fill="red" stroke="none" /><path d="M 80.20201598880116 107.00284435728193 l -59.3939520335965 21.008533071845783 a84.0,84.0 0 0,0 -0.4704366762270862,-1.3673091876428125 l 59.746779540766816 -19.983051181113673" fill="red" stroke="none" /><path d="M 79.76711848015287 105.62410040840567 l -44.692312366561495 12.423047700190931 a67.38679660023448,67.38679660023448 0 0,0 -0.3010326199158828,-1.120254365590363 l 44.89953306281915 -11.65190240142503" fill="red" stroke="none" /><path d="M 79.50377843672027 104.57218783832718 l -40.97879062898188 9.141330150277978 a62.98601193648088,62.98601193648088 0 0,0 -0.22694748286131783,-1.0602230852206924 l 41.13007215056764 -8.434593245641123" fill="red" stroke="none" /><path d="M 79.4281124754447 104.21870165774334 l -7.983308691120854 1.6371466920236537 a29.14944580624534,29.14944580624534 0 0,0 -0.0965680427839365,-0.4923983696829574 l 8.010306666880457 -1.4994845952727416" fill="red" stroke="none" /><path d="M 79.35854240842038 103.8639653848113 l -41.70927908590549 7.807743706971386 a63.43376984972823,63.43376984972823 0 0,0 -0.1916713510858268,-1.0749947266582423 l 41.83749687933051 -7.0886302295799295" fill="red" stroke="none" /><path d="M 79.18660465613746 102.79330883721812 l -42.06044930327717 5.644817810605504 a63.437546626878394,63.437546626878394 0 0,0 -0.13593304072820137,-1.0835200803155223 l 42.15138385325221 -4.9199799760025735" fill="red" stroke="none" /><path d="M 79.07016306316243 101.71520430193888 l -25.341988430076913 2.0767809948127063 a46.426942342534375,46.426942342534375 0 0,0 -0.05841712320867821,-0.7970552335618883 l 25.37398211194993 -1.6402526247540574" fill="red" stroke="none" /><path d="M 79.04373962182676 101.35467743843564 l -50.30030138263904 3.2515669398985607 a71.40528748801023,71.40528748801023 0 0,0 -0.06873149647893174,-1.2272470408391516 l 50.34881923000551 -2.3852481827239713" fill="red" stroke="none" /><path d="M 79.0095281055655 100.63252640178507 l -9.733791646773026 0.29331785569296454 a30.73821006074816,30.73821006074816 0 0,0 -0.011384755763217732,-0.5290048647779384 l 9.73739846522125 -0.12572317512489722" fill="red" stroke="none" /><line stroke="#e1ed5e" stroke-width="0.3" x1="15.007084014347285" x2="10.007500721073583" y1="101.09737516637583" y2="101.16192664675087" /><path d="M 14.007167355692545 101.11028546245083 a86.0,86.0 0 0,1 10.666146001902534,-42.60595125391555" fill="none" id="id10" stroke="none" /><text fill="#e1ed5e" style="font-size:6.75px; font-family:Arial;" text-anchor="middle"><textPath startOffset="22.20632615414155" xlink:href="#id10">October</textPath></text><path d="M 79.05617556472873 98.46500227214037 l -12.401983963492356 -0.9089561108453688 a33.43524858787168,33.43524858787168 0 0,0 0.047009189199063946,-0.5736311781384975 l 12.384500290473794 1.1223012061916446" fill="red" stroke="none" /><path d="M 79.81627453868168 94.20196356495316 l -18.001036137111623 -5.171030669813276 a39.72903788766919,39.72903788766919 0 0,0 0.1944719432513314,-0.6556627154618805 l 17.909358296748586 5.480122772021695" fill="red" stroke="none" /><path d="M 80.2630227832202 92.82701384747504 l -39.53416662292659 -14.36785514940844 a63.064065330917614,63.064065330917614 0 0,0 0.37957183277436063,-1.017063800592945 l 39.2809902016506 15.046242087030727" fill="red" stroke="none" /><path d="M 80.52162464483688 92.15188598940014 l -13.672670476542985 -5.508913077847057 a35.74076121709474,35.74076121709474 0 0,0 0.23483094962561274,-0.5686617711422578 l 13.575817840031172 5.743449419442626" fill="red" stroke="none" /><path d="M 80.65960295795068 91.81776055985345 l -9.333833707819993 -3.948815638368176 a31.134771661515508,31.134771661515508 0 0,0 0.21306456831841014,-0.4917823996774096 l 9.264478429658903 4.108897182632185" fill="red" stroke="none" /><line stroke="#e1ed5e" stroke-width="0.3" x1="26.266209847984243" x2="21.928928074336255" y1="57.711370442889674" y2="55.22380399835377" /><path d="M 25.398753493254645 57.213857153982495 a86.0,86.0 0 0,1 29.58750427330803,-30.492523968695096" fill="none" id="id11" stroke="none" /><text fill="#e1ed5e" style="font-size:6.75px; font-family:Arial;" text-anchor="middle"><textPath startOffset="21.46611528233685" xlink:href="#id11">November</textPath></text><path d="M 81.78341655067845 89.55222093294921 l -24.628935368769252 -14.125462993948938 a49.39213204731962,49.39213204731962 0 0,0 0.4293359934534485,-0.7338743841189924 l 24.382139700845478 14.547316790421823" fill="red" stroke="none" /><path d="M 83.17141714833178 87.43820079747576 l -5.245704943178604 -3.915688727489386 a27.545994085047425,27.545994085047425 0 0,0 0.28690341223067894,-0.3775312600556115 l 5.177525590723816 4.005404763426024" fill="red" stroke="none" /><path d="M 84.80347519578584 85.50635884689758 l -9.151440201024416 -8.728159366471829 a33.64632846637536,33.64632846637536 0 0,0 0.403332536674749,-0.4156696329742317 l 8.999843400646547 8.884393194996184" fill="red" stroke="none" /><line stroke="#e1ed5e" stroke-width="0.3" x1="56.762969772571076" x2="54.21961505331055" y1="26.818313649435495" y2="22.513508569990535" /><path d="M 56.25429882871897 25.957352633546506 a86.0,86.0 0 0,1 42.265352541879196,-11.944610805530505" fill="none" id="id12" stroke="none" /><text fill="#e1ed5e" style="font-size:6.75px; font-family:Arial;" text-anchor="middle"><textPath startOffset="22.20632615414155" xlink:href="#id12">December</textPath></text></svg>