<?xml version="1.0" encoding="utf-8" ?>
<svg baseProfile="full" height="200mm" version="1.1" viewBox="0,0,200,200" width="200mm" xmlns="http://www.w3.org/2000/svg" xmlns:ev="http://www.w3.org/2001/xml-events" xmlns:xlink="http://www.w3.org/1999/xlink"><defs /><rect fill="#1a1a1a" height="200" width="200" x="0" y="0" /><rect fill="#1a1a1a" height="200" width="180" x="10" y="0" /><text alignment-baseline="middle" fill="#e1ed5e" style="dominant-baseline: central; font-size:9.0px; font-family:Arial;" text-anchor="middle" x="100.0" y="100.0">2026</text><line stroke="#e1ed5e" stroke-width="0.3" x1="100.0" x2="100.0" y1="15.0" y2="10.0" /><path d="M 100.0 14.0 a86.0,86.0 0 0,1 42.46469731375804,11.215312516191453" fill="none" id="id1" stroke="none" /><text fill="#e1ed5e" style="font-size:6.75px; font-family:Arial;" text-anchor="middle"><textPath startOffset="22.20632615414155" xlink:href="#id1">January</textPath></text><path d="M 110.36928655335952 81.73862282372117 l 3.2597167618905347 -5.740695559950107 a27.601616383870013,27.601616383870013 0 0,0 0.4111369425768143,0.23815705419390196 l -3.3580504369326762 5.683734348366156" fill="#ff0000" stroke="none" /><line stroke="#e1ed5e" stroke-width="0.3" x1="143.23703022742887" x2="145.7803849466894" y1="26.81831364943548" y2="22.513508569990506" /><path d="M 143.74570117128098 25.957352633546492 a86.0,86.0 0 0,1 28.547481713284135,27.462654790039103" fill="none" id="id2" stroke="none" /><text fill="#e1ed5e" style="font-size:6.75px; font-family:Arial;" text-anchor="middle"><textPath startOffset="19.985693538727396" xlink:href="#id2">February</textPath></text><path d="M 111.2981086023043 82.29822771554956 l 8.04073349208127 -12.5981470250469 a35.94545762281555,35.94545762281555 0 0,0 0.5186980444279484,0.3373756366207162 l -8.256398562293498 12.457872464266655" fill="#ff810b" stroke="none" /><path d="M 113.34407831869373 83.78471172551755 l 18.855316859829564 -22.912365401852302 a50.67321118774595,50.67321118774595 0 0,0 0.6687475504172725,0.5600568413244952 l -19.24692194720595 22.584407403133987" fill="#b5ff1f" stroke="none" /><path d="M 116.82858285166822 87.43820079747576 l 26.145910194217233 -19.516775519480564 a53.62687767105318,53.62687767105318 0 0,0 0.5458127967839167,0.7444880414165039 l -26.477985603514774 19.06382503439257" fill="#91ff24" stroke="none" /><line stroke="#e1ed5e" stroke-width="0.3" x1="172.23445277983987" x2="176.4835382374775" y1="55.19839476539836" y2="52.563006222186495" /><path d="M 173.08426987136738 54.67131705675599 a86.0,86.0 0 0,1 12.851231095245387,41.99856678651699" fill="none" id="id3" stroke="none" /><text fill="#e1ed5e" style="font-size:6.75px; font-family:Arial;" text-anchor="middle"><textPath startOffset="22.20632615414155" xlink:href="#id3">March</textPath></text><path d="M 117.84615892207809 88.93136811851018 l 32.7918356193137 -20.338312505974496 a59.5869335251555,59.5869335251555 0 0,0 0.5331163541878896,0.8763031127778755 l -33.13706777178782 19.77084161998954" fill="#4cff2c" stroke="none" /><path d="M 118.56541770881063 90.18545643968196 l 26.251190077550685 -13.87760041639352 a50.69364871154741,50.69364871154741 0 0,0 0.4011812483120953,0.7749544783123068 l -26.486180759022897 13.423673215820868" fill="#b5ff20" stroke="none" /><path d="M 119.04729006885535 91.15688171328212 l 31.006148023481327 -14.395277942213157 a55.18486861591841,55.18486861591841 0 0,0 0.3925948338047771,0.865030675871558 l -31.24934517424945 13.859425257499536" fill="#7fff26" stroke="none" /><path d="M 119.7369772167798 92.82701384747503 l 27.91638545361564 -10.145618758534763 a50.70283078745821,50.70283078745821 0 0,0 0.29105095455474406,0.8228402418693087 l -28.086889488980194 9.66358089023884" fill="#b5ff20" stroke="none" /><path d="M 119.97218684219823 93.5106431181261 l 15.763320093594102 -5.121813176432664 a37.574535606990224,37.574535606990224 0 0,0 0.19457260462935538,0.6168483284340223 l -15.849148181991662 4.849714681572223" fill="#ff980e" stroke="none" /><path d="M 120.78858239683441 97.02765380044208 l 29.5987847308262 -4.232026678240498 a50.89980112554479,50.89980112554479 0 0,0 0.11654600406079267,0.8684031017066215 l -29.66724673394483 3.7219052344692116" fill="#b2ff20" stroke="none" /><path d="M 120.94382443527127 98.46500227214037 l 47.62350183122833 -3.4903829207307693 a68.75123767613084,68.75123767613084 0 0,0 0.0763446776343968,1.1810183720499723 l -47.676527099867144 2.670105484427762" fill="#38ff82" stroke="none" /><path d="M 120.98425023603335 99.18683210126433 l 19.92170410213358 -0.7719928080226673 a40.93665637032962,40.93665637032962 0 0,0 0.02122527726306728,0.704363619581175 l -19.932041073852293 0.42895904101649324" fill="#ffc812" stroke="none" /><line stroke="#e1ed5e" stroke-width="0.3" x1="184.98032266829074" x2="189.97916517819016" y1="98.17113171792111" y2="98.06355123074" /><path d="M 185.9800911702706 98.14961562048488 a86.0,86.0 0 0,1 -9.607161424134198,41.387399972396054" fill="none" id="id4" stroke="none" /><text fill="#e1ed5e" style="font-size:6.75px; font-family:Arial;" text-anchor="middle"><textPath startOffset="21.466115282336823" xlink:href="#id4">April</textPath></text><path d="M 120.9904718944345 100.63252640178507 l 54.099929621204886 1.630246046502623 a75.12448694621926,75.12448694621926 0 0,0 -0.050075361328318906,1.2922225710177941 l -54.06385212702536 -2.5612458645344236" fill="#41ffce" stroke="none" /><path d="M 120.9764740272857 100.99374915477107 l 10.571226914271264 0.5008061792122614 a31.58308297719291,31.58308297719291 0 0,0 -0.03040044558052495,0.5428203777044831 l -10.56104011780321 -0.6826982732521679" fill="#ff3f05" stroke="none" /><path d="M 120.8583938346157 102.4346265915055 l 30.44956574680496 3.5541242079693665 a51.65628570219608,51.65628570219608 0 0,0 -0.11068832831011627,0.8822948838493154 l -30.383875909247994 -4.077736846106077" fill="#a9ff21" stroke="none" /><path d="M 120.49622156327973 104.57218783832717 l 29.540704388549056 6.589782849679989 a51.26678796597977,51.26678796597977 0 0,0 -0.19954848737607292,0.8596496609469949 l -29.42289533524243 -7.097301167975549" fill="#aeff20" stroke="none" /><path d="M 120.32669344350535 105.2749913415812 l 60.980080330516046 15.82497402474362 a84.0,84.0 0 0,0 -0.3752476946328911,1.396436267297807 l -60.69864455954138 -16.872301225216972" fill="#4dd2ff" stroke="none" /><path d="M 119.9155931802556 106.66101706037122 l 28.573239937031552 9.55667435903131 a51.12905682731773,51.12905682731773 0 0,0 -0.28634504229129387,0.8322527280416939 l -28.404504063797027 -10.047099790162305" fill="#afff20" stroke="none" /><path d="M 119.67450827220406 107.3425965602758 l 30.96961130896794 11.557969242442052 a54.05606567088394,54.05606567088394 0 0,0 -0.3328456435197312,0.8689549447719209 l -30.766071385854705 -12.089347754047118" fill="#8cff24" stroke="none" /><path d="M 119.54520255179757 107.68017299344265 l 6.797636137635574 2.671091350686312 a28.303600897050735,28.303600897050735 0 0,0 -0.18208297563303533,0.4519150130050391 l -6.750650547745148 -2.787705731534165" fill="#ff0b01" stroke="none" /><path d="M 119.41010516605496 108.01547362559984 l 49.81239826878424 20.570211296411298 a74.89256548047223,74.89256548047223 0 0,0 -0.5023116363769092,1.187316327936387 l -49.450935651215026 -21.424602150013847" fill="#41ffcb" stroke="none" /><path d="M 119.12269723197855 108.67885076344098 l 27.308891447521507 12.394161268824659 a50.98984470867008,50.98984470867008 0 0,0 -0.3696166022883238,0.7961212786924581 l -27.09150022839335 -12.862402614795949" fill="#b1ff20" stroke="none" /><path d="M 118.97047184881838 109.00673069616215 l 26.86727625613268 12.755946383771763 a50.74163246308129,50.74163246308129 0 0,0 -0.3814000684928797,0.7857971080640447 l -26.643722931025085 -13.216532447801082" fill="#b4ff20" stroke="none" /><line stroke="#e1ed5e" stroke-width="0.3" x1="174.80103733775053" x2="179.2010983576182" y1="140.37084112569926" y2="142.7455964860345" /><path d="M 175.68104954172406 140.8457921977663 a86.0,86.0 0 0,1 -30.038265399797805,32.042727171017184" fill="none" id="id5" stroke="none" /><text fill="#e1ed5e" style="font-size:6.75px; font-family:Arial;" text-anchor="middle"><textPath startOffset="22.206326154141568" xlink:href="#id5">May</textPath></text><line stroke="#e1ed5e" stroke-width="0.3" x1="143.8653032363475" x2="146.44561519142675" y1="172.8068346515853" y2="177.08958963109032" /><path d="M 144.38136562736335 173.6633856474863 a86.0,86.0 0 0,1 -40.68145358897372,12.25698825130547" fill="none" id="id6" stroke="none" /><text fill="#e1ed5e" style="font-size:6.75px; font-family:Arial;" text-anchor="middle"><textPath startOffset="21.466115282336833" xlink:href="#id6">June</textPath></text><line stroke="#e1ed5e" stroke-width="0.3" x1="102.19456741930631" x2="102.32365962044197" y1="184.97166512339345" y2="189.96999836594603" /><path d="M 102.22038585953345 185.97133177190398 a86.0,86.0 0 0,1 -42.740103519485714,-10.115201625700543" fill="none" id="id7" stroke="none" /><text fill="#e1ed5e" style="font-size:6.75px; font-family:Arial;" text-anchor="middle"><textPath startOffset="22.20632615414155" xlink:href="#id7">July</textPath></text><line stroke="#e1ed5e" stroke-width="0.3" x1="58.666819895761336" x2="56.23545636021788" y1="174.27360380694188" y2="178.64263932499728" /><path d="M 58.180547188652646 175.14741091055294 a86.0,86.0 0 0,1 -31.652253787137756,-30.449443065178592" fill="none" id="id8" stroke="none" /><text fill="#e1ed5e" style="font-size:6.75px; font-family:Arial;" text-anchor="middle"><textPath startOffset="22.20632615414155" xlink:href="#id8">August</textPath></text><line stroke="#e1ed5e" stroke-width="0.3" x1="26.63291911575756" x2="22.317208475507996" y1="142.92168965132927" y2="145.44649492493687" /><path d="M 25.769776987707644 143.4266507060508 a86.0,86.0 0 0,1 -11.730757126820373,-40.83630448921669" fill="none" id="id9" stroke="none" /><text fill="#e1ed5e" style="font-size:6.75px; font-family:Arial;" text-anchor="middle"><textPath startOffset="21.46611528233685" xlink:href="#id9">September</textPath></text><line stroke="#e1ed5e" stroke-width="0.3" x1="15.007084014347285" x2="10.007500721073583" y1="101.09737516637583" y2="101.16192664675087" /><path d="M 14.007167355692545 101.11028546245083 a86.0,86.0 0 0,1 10.666146001902534,-42.60595125391555" fill="none" id="id10" stroke="none" /><text fill="#e1ed5e" style="font-size:6.75px; font-family:Arial;" text-anchor="middle"><textPath startOffset="22.20632615414155" xlink:href="#id10">October</textPath></text><line stroke="#e1ed5e" stroke-width="0.3" x1="26.266209847984243" x2="21.928928074336255" y1="57.711370442889674" y2="55.22380399835377" /><path d="M 25.398753493254645 57.213857153982495 a86.0,86.0 0 0,1 29.58750427330803,-30.492523968695096" fill="none" id="id11" stroke="none" /><text fill="#e1ed5e" style="font-size:6.75px; font-family:Arial;" text-anchor="middle"><textPath startOffset="21.46611528233685" xlink:href="#id11">November</textPath></text><line stroke="#e1ed5e" stroke-width="0.3" x1="56.76296977257108" x2="54.21961505331056" y1="26.818313649435495" y2="22.513508569990535" /><path d="M 56.25429882871898 25.957352633546506 a86.0,86.0 0 0,1 42.26535254187918,-11.944610805530505" fill="none" id="id12" stroke="none" /><text fill="#e1ed5e" style="font-size:6.75px; font-family:Arial;" text-anchor="middle"><textPath startOffset="22.20632615414155" xlink:href="#id12">December</textPath></text></svg>